<?xml version="1.0" encoding="utf-8"?>
<!-- Generator: Adobe Illustrator 24.1.0, SVG Export Plug-In . SVG Version: 6.00 Build 0)  -->
<svg version="1.1" id="Capa_1" xmlns="http://www.w3.org/2000/svg" xmlns:xlink="http://www.w3.org/1999/xlink" x="0px" y="0px"
	 viewBox="0 0 100.41 100.41" style="enable-background:new 0 0 100.41 100.41;" xml:space="preserve">
<style type="text/css">
	.st0{fill:#6F6F6E;}
</style>
<g>
	<path class="st0" d="M100.41,50.25c-0.01,27.71-22.53,50.19-50.25,50.16C22.44,100.39-0.01,77.9,0,50.16
		C0.01,22.46,22.53-0.03,50.25,0C77.98,0.03,100.42,22.51,100.41,50.25z M50.2,56.35c0-0.01,0-0.02,0-0.02c-2.45,0-4.91-0.01-7.36,0
		c-2.08,0.01-4.16-0.03-6.22,0.45c-7.4,1.72-12.8,8.38-12.91,16c-0.03,2.36,0.85,4.29,2.66,5.8c4.74,3.95,10.1,6.67,16.16,7.87
		c11.78,2.34,22.32-0.39,31.6-7.98c1.73-1.42,2.56-3.32,2.55-5.56c-0.04-8.98-7.26-16.37-16.25-16.56
		C57.03,56.29,53.61,56.35,50.2,56.35z M50.22,48.23c9.17-0.01,16.61-7.46,16.6-16.64C66.82,22.44,59.34,15,50.16,15.01
		c-9.13,0.01-16.57,7.47-16.57,16.6C33.59,40.78,41.05,48.23,50.22,48.23z"/>
</g>
</svg>
