<?xml version="1.0" encoding="utf-8"?>
<!-- Generator: Adobe Illustrator 24.1.0, SVG Export Plug-In . SVG Version: 6.00 Build 0)  -->
<svg version="1.1" id="Capa_1" xmlns="http://www.w3.org/2000/svg" xmlns:xlink="http://www.w3.org/1999/xlink" x="0px" y="0px"
	 viewBox="0 0 16.2 16.2" style="enable-background:new 0 0 16.2 16.2;" xml:space="preserve">
<style type="text/css">
	.st0{fill:#FFDD00;}
</style>
<path class="st0" d="M8.78,8.1l7.28-7.28c0.19-0.19,0.19-0.49,0-0.68c-0.19-0.19-0.49-0.19-0.68,0L8.1,7.42L0.82,0.14
	c-0.19-0.19-0.49-0.19-0.68,0c-0.19,0.19-0.19,0.49,0,0.68L7.42,8.1l-7.28,7.28c-0.19,0.19-0.19,0.49,0,0.68
	c0.09,0.09,0.22,0.14,0.34,0.14s0.25-0.05,0.34-0.14L8.1,8.78l7.28,7.28c0.09,0.09,0.22,0.14,0.34,0.14s0.25-0.05,0.34-0.14
	c0.19-0.19,0.19-0.49,0-0.68L8.78,8.1z"/>
</svg>
